<svg width="140" height="56" viewBox="0 0 140 56" xmlns="http://www.w3.org/2000/svg" xmlns:c2pa="http://c2pa.org/manifest"><metadata><c2pa:manifest>AAAWgmp1bWIAAAAeanVtZGMycGEAEQAQgAAAqgA4m3EDYzJwYQAAABZcanVtYgAAAEdqdW1kYzJtYQARABCAAACqADibcQN1cm46YzJwYTo2MzM3Mjk0Zi0xMmUxLTRkZGEtYjQ1Yi1jZjFhMDgyMWQxMzQAAAADl2p1bWIAAAApanVtZGMyYXMAEQAQgAAAqgA4m3EDYzJwYS5hc3NlcnRpb25zAAAAALxqdW1iAAAARGp1bWRjYm9yABEAEIAAAKoAOJtxE2MycGEuaW5ncmVkaWVudC52MwAAAAAYYzJzaOv2izf1rKMp92q95h8s5kEAAABwY2JvcqNpZGM6Zm9ybWF0bWltYWdlL3N2Zyt4bWxqaW5zdGFuY2VJRHgseG1wOmlpZDoxZWZjZTY3NC0wODBhLTQ2NTEtYTIxOS1mMzhmNTViYjlhNDhscmVsYXRpb25zaGlwaHBhcmVudE9mAAAB4mp1bWIAAABBanVtZGNib3IAEQAQgAAAqgA4m3ETYzJwYS5hY3Rpb25zLnYyAAAAABhjMnNoS3QWRgF6A5U9w7ooBNXRFwAAAZljYm9yomdhY3Rpb25zgqJmYWN0aW9ua2MycGEub3BlbmVkanBhcmFtZXRlcnOha2luZ3JlZGllbnRzgaJjdXJseC1zZWxmI2p1bWJmPWMycGEuYXNzZXJ0aW9ucy9jMnBhLmluZ3JlZGllbnQudjNkaGFzaFggj1zXnKaRx6yLrsEH6jxHmaRO5vhpWoMj6GACVBZzww6kZmFjdGlvbngdY29tLmFudGhyb3BpYy5jbGF1ZGUucHJvdmlkZWRqcGFyYW1ldGVyc6F4H2NvbS5hbnRocm9waWMub3JpZ2luLWNvbmZpZGVuY2VndW5rbm93bmtkZXNjcmlwdGlvbnhmQ2xhdWRlIHByb3ZpZGVkIHRoaXMgZmlsZSBhdCB0aGUgcmVxdWVzdCBvZiBhIHVzZXIgYW5kIG1heSBoYXZlIGNyZWF0ZWQgb3IgbW9kaWZpZWQgdGhlIGZpbGUgY29udGVudHMubXNvZnR3YXJlQWdlbnShZG5hbWVmQ2xhdWRlcmFsbEFjdGlvbnNJbmNsdWRlZPUAAADIanVtYgAAAEBqdW1kY2JvcgARABCAAACqADibcRNjMnBhLmhhc2guZGF0YQAAAAAYYzJzaPL0AUJDsjheix6qxuYXu98AAACAY2JvcqVjYWxnZnNoYTI1NmNwYWRNAAAAAAAAAAAAAAAAAGRoYXNoWCBEJ4K6WY/eMo0caNhZ2P/cBVOtSk0g9IurM9s/arQMGmRuYW1lbmp1bWJmIG1hbmlmZXN0amV4Y2x1c2lvbnOBomVzdGFydBiUZmxlbmd0aBkeBAAAAj5qdW1iAAAAJ2p1bWRjMmNsABEAEIAAAKoAOJtxA2MycGEuY2xhaW0udjIAAAACD2Nib3KlY2FsZ2ZzaGEyNTZpc2lnbmF0dXJleE1zZWxmI2p1bWJmPS9jMnBhL3VybjpjMnBhOjYzMzcyOTRmLTEyZTEtNGRkYS1iNDViLWNmMWEwODIxZDEzNC9jMnBhLnNpZ25hdHVyZWppbnN0YW5jZUlEeCx4bXA6aWlkOmNlMGQ1MzkwLTVmZDAtNDlhMy05OTMxLTMzZDE3Y2NkNTI5N3JjcmVhdGVkX2Fzc2VydGlvbnODomN1cmx4LXNlbGYjanVtYmY9YzJwYS5hc3NlcnRpb25zL2MycGEuaW5ncmVkaWVudC52M2RoYXNoWCCPXNecppHHrIuuwQfqPEeZpE7m+GlagyPoYAJUFnPDDqJjdXJseCpzZWxmI2p1bWJmPWMycGEuYXNzZXJ0aW9ucy9jMnBhLmFjdGlvbnMudjJkaGFzaFggiQq0EPwu8KIzNnrvSr5KhXeO5LjmF+feMl6DzO+rA4+iY3VybHgpc2VsZiNqdW1iZj1jMnBhLmFzc2VydGlvbnMvYzJwYS5oYXNoLmRhdGFkaGFzaFgggcbDcXVYnA+61ZQHEA65pLYi+CSSdNCrmAnBHIt0fQF0Y2xhaW1fZ2VuZXJhdG9yX2luZm+jZG5hbWVvQW50aHJvcGljIEZpbGVzZ3ZlcnNpb25lMS4wLjBrc3BlY1ZlcnNpb25lMi40LjAAABA4anVtYgAAAChqdW1kYzJjcwARABCAAACqADibcQNjMnBhLnNpZ25hdHVyZQAAABAIY2JvctKEWQISogEmGCFZAgowggIGMIIBjaADAgECAhRA5aAK7sI50L64g/oGQgU9Z1UTADAKBggqhkjOPQQDAzBJMRcwFQYDVQQKEw5BbnRocm9waWMsIFBCQzEuMCwGA1UEAxMlQW50aHJvcGljIENvbnRlbnQgQ3JlZGVudGlhbHMgUm9vdCBDQTAeFw0yNjA4MDcxODQzNTZaFw0yODA4MDYxOTQzNTZaMEQxFzAVBgNVBAoTDkFudGhyb3BpYywgUEJDMSkwJwYDVQQDEyBBbnRocm9waWMgQ2xhdWRlIENvbnRlbnQgU2lnbmluZzBZMBMGByqGSM49AgEGCCqGSM49AwEHA0IABJh6CmvLUBgFFNU0vUKlOVtE6djd17L5SuwX0LemFisBM3dkd/3cyjxFA3Qo5S46fX0/ihY0VZ7mfb9KF703t5OjWDBWMA4GA1UdDwEB/wQEAwIHgDAVBgNVHSUEDjAMBgorBgEEAYPoXgIBMAwGA1UdEwEB/wQCMAAwHwYDVR0jBBgwFoAUzlHiBIFOZFsj+OPEz5o+nMHXXMIwCgYIKoZIzj0EAwMDZwAwZAIwMXMdFJ4BetLLVY7ORuE9noqbbAZOZn/aArXyTwFAZfKrPzxF2vPoJNf1+UCdg1XGAjBwX1zd9WGqYkqmL5SFqw1QySjr1zJfpJM9+1rdDwSPLMOPOjKuiXjoU/pUUeG9RwmhY3BhZFkNngAAAAAAAAAAAAAAAAAAAAAAAAAAAAAAAAAAAAAAAAAAAAAAAAAAAAAAAAAAAAAAAAAAAAAAAAAAAAAAAAAAAAAAAAAAAAAAAAAAAAAAAAAAAAAAAAAAAAAAAAAAAAAAAAAAAAAAAAAAAAAAAAAAAAAAAAAAAAAAAAAAAAAAAAAAAAAAAAAAAAAAAAAAAAAAAAAAAAAAAAAAAAAAAAAAAAAAAAAAAAAAAAAAAAAAAAAAAAAAAAAAAAAAAAAAAAAAAAAAAAAAAAAAAAAAAAAAAAAAAAAAAAAAAAAAAAAAAAAAAAAAAAAAAAAAAAAAAAAAAAAAAAAAAAAAAAAAAAAAAAAAAAAAAAAAAAAAAAAAAAAAAAAAAAAAAAAAAAAAAAAAAAAAAAAAAAAAAAAAAAAAAAAAAAAAAAAAAAAAAAAAAAAAAAAAAAAAAAAAAAAAAAAAAAAAAAAAAAAAAAAAAAAAAAAAAAAAAAAAAAAAAAAAAAAAAAAAAAAAAAAAAAAAAAAAAAAAAAAAAAAAAAAAAAAAAAAAAAAAAAAAAAAAAAAAAAAAAAAAAAAAAAAAAAAAAAAAAAAAAAAAAAAAAAAAAAAAAAAAAAAAAAAAAAAAAAAAAAAAAAAAAAAAAAAAAAAAAAAAAAAAAAAAAAAAAAAAAAAAAAAAAAAAAAAAAAAAAAAAAAAAAAAAAAAAAAAAAAAAAAAAAAAAAAAAAAAAAAAAAAAAAAAAAAAAAAAAAAAAAAAAAAAAAAAAAAAAAAAAAAAAAAAAAAAAAAAAAAAAAAAAAAAAAAAAAAAAAAAAAAAAAAAAAAAAAAAAAAAAAAAAAAAAAAAAAAAAAAAAAAAAAAAAAAAAAAAAAAAAAAAAAAAAAAAAAAAAAAAAAAAAAAAAAAAAAAAAAAAAAAAAAAAAAAAAAAAAAAAAAAAAAAAAAAAAAAAAAAAAAAAAAAAAAAAAAAAAAAAAAAAAAAAAAAAAAAAAAAAAAAAAAAAAAAAAAAAAAAAAAAAAAAAAAAAAAAAAAAAAAAAAAAAAAAAAAAAAAAAAAAAAAAAAAAAAAAAAAAAAAAAAAAAAAAAAAAAAAAAAAAAAAAAAAAAAAAAAAAAAAAAAAAAAAAAAAAAAAAAAAAAAAAAAAAAAAAAAAAAAAAAAAAAAAAAAAAAAAAAAAAAAAAAAAAAAAAAAAAAAAAAAAAAAAAAAAAAAAAAAAAAAAAAAAAAAAAAAAAAAAAAAAAAAAAAAAAAAAAAAAAAAAAAAAAAAAAAAAAAAAAAAAAAAAAAAAAAAAAAAAAAAAAAAAAAAAAAAAAAAAAAAAAAAAAAAAAAAAAAAAAAAAAAAAAAAAAAAAAAAAAAAAAAAAAAAAAAAAAAAAAAAAAAAAAAAAAAAAAAAAAAAAAAAAAAAAAAAAAAAAAAAAAAAAAAAAAAAAAAAAAAAAAAAAAAAAAAAAAAAAAAAAAAAAAAAAAAAAAAAAAAAAAAAAAAAAAAAAAAAAAAAAAAAAAAAAAAAAAAAAAAAAAAAAAAAAAAAAAAAAAAAAAAAAAAAAAAAAAAAAAAAAAAAAAAAAAAAAAAAAAAAAAAAAAAAAAAAAAAAAAAAAAAAAAAAAAAAAAAAAAAAAAAAAAAAAAAAAAAAAAAAAAAAAAAAAAAAAAAAAAAAAAAAAAAAAAAAAAAAAAAAAAAAAAAAAAAAAAAAAAAAAAAAAAAAAAAAAAAAAAAAAAAAAAAAAAAAAAAAAAAAAAAAAAAAAAAAAAAAAAAAAAAAAAAAAAAAAAAAAAAAAAAAAAAAAAAAAAAAAAAAAAAAAAAAAAAAAAAAAAAAAAAAAAAAAAAAAAAAAAAAAAAAAAAAAAAAAAAAAAAAAAAAAAAAAAAAAAAAAAAAAAAAAAAAAAAAAAAAAAAAAAAAAAAAAAAAAAAAAAAAAAAAAAAAAAAAAAAAAAAAAAAAAAAAAAAAAAAAAAAAAAAAAAAAAAAAAAAAAAAAAAAAAAAAAAAAAAAAAAAAAAAAAAAAAAAAAAAAAAAAAAAAAAAAAAAAAAAAAAAAAAAAAAAAAAAAAAAAAAAAAAAAAAAAAAAAAAAAAAAAAAAAAAAAAAAAAAAAAAAAAAAAAAAAAAAAAAAAAAAAAAAAAAAAAAAAAAAAAAAAAAAAAAAAAAAAAAAAAAAAAAAAAAAAAAAAAAAAAAAAAAAAAAAAAAAAAAAAAAAAAAAAAAAAAAAAAAAAAAAAAAAAAAAAAAAAAAAAAAAAAAAAAAAAAAAAAAAAAAAAAAAAAAAAAAAAAAAAAAAAAAAAAAAAAAAAAAAAAAAAAAAAAAAAAAAAAAAAAAAAAAAAAAAAAAAAAAAAAAAAAAAAAAAAAAAAAAAAAAAAAAAAAAAAAAAAAAAAAAAAAAAAAAAAAAAAAAAAAAAAAAAAAAAAAAAAAAAAAAAAAAAAAAAAAAAAAAAAAAAAAAAAAAAAAAAAAAAAAAAAAAAAAAAAAAAAAAAAAAAAAAAAAAAAAAAAAAAAAAAAAAAAAAAAAAAAAAAAAAAAAAAAAAAAAAAAAAAAAAAAAAAAAAAAAAAAAAAAAAAAAAAAAAAAAAAAAAAAAAAAAAAAAAAAAAAAAAAAAAAAAAAAAAAAAAAAAAAAAAAAAAAAAAAAAAAAAAAAAAAAAAAAAAAAAAAAAAAAAAAAAAAAAAAAAAAAAAAAAAAAAAAAAAAAAAAAAAAAAAAAAAAAAAAAAAAAAAAAAAAAAAAAAAAAAAAAAAAAAAAAAAAAAAAAAAAAAAAAAAAAAAAAAAAAAAAAAAAAAAAAAAAAAAAAAAAAAAAAAAAAAAAAAAAAAAAAAAAAAAAAAAAAAAAAAAAAAAAAAAAAAAAAAAAAAAAAAAAAAAAAAAAAAAAAAAAAAAAAAAAAAAAAAAAAAAAAAAAAAAAAAAAAAAAAAAAAAAAAAAAAAAAAAAAAAAAAAAAAAAAAAAAAAAAAAAAAAAAAAAAAAAAAAAAAAAAAAAAAAAAAAAAAAAAAAAAAAAAAAAAAAAAAAAAAAAAAAAAAAAAAAAAAAAAAAAAAAAAAAAAAAAAAAAAAAAAAAAAAAAAAAAAAAAAAAAAAAAAAAAAAAAAAAAAAAAAAAAAAAAAAAAAAAAAAAAAAAAAAAAAAAAAAAAAAAAAAAAAAAAAAAAAAAAAAAAAAAAAAAAAAAAAAAAAAAAAAAAAAAAAAAAAAAAAAAAAAAAAAAAAAAAAAAAAAAAAAAAAAAAAAAAAAAAAAAAAAAAAAAAAAAAAAAAAAAAAAAAAAAAAAAAAAAAAAAAAAAAAAAAAAAAAAAAAAAAAAAAAAAAAAAAAAAAAAAAAAAAAAAAAAAAAAAAAAAAAAAAAAAAAAAAAAAAAAAAAAAAAAAAAAAAAAAAAAAAAAAAAAAAAAAAAAAAAAAAAAAAAAAAAAAAAAAAAAAAAAAAAAAAAAAAAAAAAAAAAAAAAAAAAAAAAAAAAAAAAAAAAAAAAAAAAAAAAAAAAAAAAAAAAAAAAAAAAAAAAAAAAAAAAAAAAAAAAAAAAAAAAAAAAAAAAAAAAAAAAAAAAAAAAAAAAAAAAAAAAAAAAAAAAAAAAAAAAAAAAAAAAAAAAAAAAAAAAAAAAAAAAAAAAAAAAAAAAAAAAAAAAAAAAAAAAAAAAAAAAAAAAAAAAAAAAAAAAAAAAAAAAAAAAAAAAAAAAAAAAAAAAAAAAAAAAAAAAAAAAAAAAAAAAAAAAAAAAAAAAAAAAAAAAAAAAAAAAAAAAAAAAAAAAAAAAAAAAAAAAAAAAAAAAAAAAAAAAAAAAAAAAAAAAAAAAAAAAAAAAAAAAAAAAAAAAAAAAAAAAAAAAAAAAAAAAAAAAAAAAAAAAAAAAAAAAAAAAAAAAAAAAAAAAAAAAAAAAAAAAAAAAAAAAAAAAAAAAAAAAAAAAAAAAAAAAAAAAAAAAAAAAAAAAAAAAAAAAAAAAAAAAAAAAAAAAAAAAAAAAAAAAAAAAAAAAAAAAAAAAAAAAAAAAAAAAAAAAAAAAAAAAAAAAAAAAAAAAAAAAAAAAAAAAAAAAAAAAAAAAAAAAAAAAAAAAAAAAAAAAAAAAAAAAAAAAAAAAAAAAAAAAAAAAAAAAAAAAAAAAAAAAAAAAAAAAAAAAAAAAAAAAAAAAAAAAAAAAAAAAAAAAAAAAAAAAAAAAAAAAAAAAAAAAAAAAAAAAAAAAAAAAAAAAAAAAAAAAAAAAAAAAAAAAAAAAAAAAAAAAAAAAAAAAAAAAAAAAAAAAAAAAAAAAAAAAAAAAAAAAAAAAAAAAAAAAAAAAAAAAAAAAAAAAAAAAAAAAAAAAAAAAAAAAAAAAAAAAAAAAAAAAAAAAAAAAAAAAAAAAAAAAAAAAAAAAAAAAAAAAAAAAAAAAAAAAAAAAAAAAAAAAAAAAAAAAAAAAAAAAAAAAAAAAAAAAAAAAAAAAAAAAAAAAAAAAAAAAAAAAAAAAAAAAAAAAAAAAAAAAAAAAAAAAAAAAAAAAAAAAAAAAAAAAAAAAAAAAAAAAAAAAAAAAAAAAAAAAAAAAAAAAAAAAAAAAAAAAAAAAAAAAAAAAAAAAAAAAAAAAAAAAAAAAAAAAAAAAAAAAAAAAAAAAAAAAAAAAAAAAAAAAAAAAAAAAAAAAAAAAAAAAAAAAAAAAAAAAAAAAAAAAAAAAAAAAAAAAAAAAAAAAAAAAAAAAAAPZYQLb8M3P468X+Mo2EKc7l4oN8kKuECjmSD9raSK45f5przjY2l54zmwIoR4xHr9lSyya1iiN70cPOBS301gOlYO8=</c2pa:manifest></metadata>
<polyline points="0,28.0 4,29.8 8,31.5 12,33.1 16,34.6 20,35.8 24,36.8 28,37.5 32,37.9 36,38.0 40,37.7 44,37.2 48,36.3 52,35.2 56,33.9 60,32.3 64,30.7 68,28.9 72,27.1 76,25.3 80,23.7 84,22.1 88,20.8 92,19.7 96,18.8 100,18.3 104,18.0 108,18.1 112,18.5 116,19.2 120,20.2 124,21.4 128,22.9 132,24.5 136,26.2 140,28.0" fill="none" stroke="#7a9b5e" stroke-width="2" opacity="0.7"/>
<path d="M6.0 28.0 Q 14.6 27.3 16.7 19.0 Q 8.1 19.7 6.0 28.0 Z" fill="#7a9b5e" opacity="0.85"/>
<path d="M6.0 28.0 Q -1.2 28.8 -3.2 35.7 Q 4.0 34.9 6.0 28.0 Z" fill="#5f7d45" opacity="0.85"/>
<path d="M26.0 35.8 Q 34.6 35.1 36.7 26.8 Q 28.1 27.5 26.0 35.8 Z" fill="#7a9b5e" opacity="0.85"/>
<path d="M26.0 35.8 Q 18.8 36.6 16.8 43.5 Q 24.0 42.7 26.0 35.8 Z" fill="#5f7d45" opacity="0.85"/>
<path d="M46.0 37.7 Q 54.6 37.1 56.7 28.8 Q 48.1 29.4 46.0 37.7 Z" fill="#7a9b5e" opacity="0.85"/>
<path d="M46.0 37.7 Q 38.8 38.5 36.8 45.5 Q 44.0 44.7 46.0 37.7 Z" fill="#5f7d45" opacity="0.85"/>
<path d="M66.0 32.3 Q 74.6 31.7 76.7 23.3 Q 68.1 24.0 66.0 32.3 Z" fill="#7a9b5e" opacity="0.85"/>
<path d="M66.0 32.3 Q 58.8 33.1 56.8 40.1 Q 64.0 39.3 66.0 32.3 Z" fill="#5f7d45" opacity="0.85"/>
<path d="M86.0 23.7 Q 94.6 23.0 96.7 14.7 Q 88.1 15.3 86.0 23.7 Z" fill="#7a9b5e" opacity="0.85"/>
<path d="M86.0 23.7 Q 78.8 24.5 76.8 31.4 Q 84.0 30.6 86.0 23.7 Z" fill="#5f7d45" opacity="0.85"/>
<path d="M106.0 18.3 Q 114.6 17.6 116.7 9.3 Q 108.1 9.9 106.0 18.3 Z" fill="#7a9b5e" opacity="0.85"/>
<path d="M106.0 18.3 Q 98.8 19.0 96.8 26.0 Q 104.0 25.2 106.0 18.3 Z" fill="#5f7d45" opacity="0.85"/>
<path d="M126.0 20.2 Q 134.6 19.5 136.7 11.2 Q 128.1 11.9 126.0 20.2 Z" fill="#7a9b5e" opacity="0.85"/>
<path d="M126.0 20.2 Q 118.8 21.0 116.8 27.9 Q 124.0 27.1 126.0 20.2 Z" fill="#5f7d45" opacity="0.85"/>
<circle cx="40.1" cy="37.8" r="4.6" fill="#c14a5c"/>
<circle cx="37.4" cy="44.4" r="4.6" fill="#c14a5c"/>
<circle cx="30.8" cy="47.2" r="4.6" fill="#c14a5c"/>
<circle cx="24.2" cy="44.4" r="4.6" fill="#c14a5c"/>
<circle cx="21.5" cy="37.8" r="4.6" fill="#c14a5c"/>
<circle cx="24.2" cy="31.2" r="4.6" fill="#c14a5c"/>
<circle cx="30.8" cy="28.5" r="4.6" fill="#c14a5c"/>
<circle cx="37.4" cy="31.2" r="4.6" fill="#c14a5c"/>
<circle cx="36.5" cy="39.9" r="3.7" fill="#dd7688"/>
<circle cx="31.8" cy="43.8" r="3.7" fill="#dd7688"/>
<circle cx="26.2" cy="41.7" r="3.7" fill="#dd7688"/>
<circle cx="25.1" cy="35.7" r="3.7" fill="#dd7688"/>
<circle cx="29.8" cy="31.9" r="3.7" fill="#dd7688"/>
<circle cx="35.4" cy="33.9" r="3.7" fill="#dd7688"/>
<circle cx="33.2" cy="39.8" r="2.9" fill="#f0a3b0"/>
<circle cx="29.6" cy="40.7" r="2.9" fill="#f0a3b0"/>
<circle cx="27.7" cy="37.6" r="2.9" fill="#f0a3b0"/>
<circle cx="30.1" cy="34.8" r="2.9" fill="#f0a3b0"/>
<circle cx="33.4" cy="36.2" r="2.9" fill="#f0a3b0"/>
<circle cx="30.8" cy="37.8" r="2.0" fill="#8f1d33"/>
<circle cx="110.1" cy="18.2" r="4.6" fill="#c14a5c"/>
<circle cx="107.4" cy="24.8" r="4.6" fill="#c14a5c"/>
<circle cx="100.8" cy="27.5" r="4.6" fill="#c14a5c"/>
<circle cx="94.2" cy="24.8" r="4.6" fill="#c14a5c"/>
<circle cx="91.5" cy="18.2" r="4.6" fill="#c14a5c"/>
<circle cx="94.2" cy="11.6" r="4.6" fill="#c14a5c"/>
<circle cx="100.8" cy="8.8" r="4.6" fill="#c14a5c"/>
<circle cx="107.4" cy="11.6" r="4.6" fill="#c14a5c"/>
<circle cx="106.5" cy="20.3" r="3.7" fill="#dd7688"/>
<circle cx="101.8" cy="24.1" r="3.7" fill="#dd7688"/>
<circle cx="96.2" cy="22.1" r="3.7" fill="#dd7688"/>
<circle cx="95.1" cy="16.1" r="3.7" fill="#dd7688"/>
<circle cx="99.8" cy="12.2" r="3.7" fill="#dd7688"/>
<circle cx="105.4" cy="14.3" r="3.7" fill="#dd7688"/>
<circle cx="103.2" cy="20.2" r="2.9" fill="#f0a3b0"/>
<circle cx="99.6" cy="21.0" r="2.9" fill="#f0a3b0"/>
<circle cx="97.7" cy="18.0" r="2.9" fill="#f0a3b0"/>
<circle cx="100.1" cy="15.2" r="2.9" fill="#f0a3b0"/>
<circle cx="103.4" cy="16.5" r="2.9" fill="#f0a3b0"/>
<circle cx="100.8" cy="18.2" r="2.0" fill="#8f1d33"/>
</svg>