<svg width="900" height="700" viewBox="0 0 900 700" xmlns="http://www.w3.org/2000/svg" xmlns:c2pa="http://c2pa.org/manifest"><metadata><c2pa:manifest>AAAWgmp1bWIAAAAeanVtZGMycGEAEQAQgAAAqgA4m3EDYzJwYQAAABZcanVtYgAAAEdqdW1kYzJtYQARABCAAACqADibcQN1cm46YzJwYTpiNDBhYmNmMC00MWU1LTQyNjAtYjg4NS03ZmRiOGI1MDJhMTEAAAADl2p1bWIAAAApanVtZGMyYXMAEQAQgAAAqgA4m3EDYzJwYS5hc3NlcnRpb25zAAAAALxqdW1iAAAARGp1bWRjYm9yABEAEIAAAKoAOJtxE2MycGEuaW5ncmVkaWVudC52MwAAAAAYYzJzaBj77cP8+QX5PfGduN3ql2oAAABwY2JvcqNpZGM6Zm9ybWF0bWltYWdlL3N2Zyt4bWxqaW5zdGFuY2VJRHgseG1wOmlpZDoxODdlNjQ5YS1lYWIzLTRmM2YtYTZmOS0wODE5YTFiMzE0OWJscmVsYXRpb25zaGlwaHBhcmVudE9mAAAB4mp1bWIAAABBanVtZGNib3IAEQAQgAAAqgA4m3ETYzJwYS5hY3Rpb25zLnYyAAAAABhjMnNoDg0cQaTJ3vQeIe7QTKsK3wAAAZljYm9yomdhY3Rpb25zgqJmYWN0aW9ua2MycGEub3BlbmVkanBhcmFtZXRlcnOha2luZ3JlZGllbnRzgaJjdXJseC1zZWxmI2p1bWJmPWMycGEuYXNzZXJ0aW9ucy9jMnBhLmluZ3JlZGllbnQudjNkaGFzaFggK6esQaQLCkXnvAHM4XXw6xLwFmkWNmGkLElUtofP8oekZmFjdGlvbngdY29tLmFudGhyb3BpYy5jbGF1ZGUucHJvdmlkZWRqcGFyYW1ldGVyc6F4H2NvbS5hbnRocm9waWMub3JpZ2luLWNvbmZpZGVuY2VndW5rbm93bmtkZXNjcmlwdGlvbnhmQ2xhdWRlIHByb3ZpZGVkIHRoaXMgZmlsZSBhdCB0aGUgcmVxdWVzdCBvZiBhIHVzZXIgYW5kIG1heSBoYXZlIGNyZWF0ZWQgb3IgbW9kaWZpZWQgdGhlIGZpbGUgY29udGVudHMubXNvZnR3YXJlQWdlbnShZG5hbWVmQ2xhdWRlcmFsbEFjdGlvbnNJbmNsdWRlZPUAAADIanVtYgAAAEBqdW1kY2JvcgARABCAAACqADibcRNjMnBhLmhhc2guZGF0YQAAAAAYYzJzaIc/Ws/XdNnBxURPycVMiS0AAACAY2JvcqVjYWxnZnNoYTI1NmNwYWRNAAAAAAAAAAAAAAAAAGRoYXNoWCA7GtsTuBQ5jH+A9Viaos9JNV6EPY78zi1n5cTSJaPPNWRuYW1lbmp1bWJmIG1hbmlmZXN0amV4Y2x1c2lvbnOBomVzdGFydBiWZmxlbmd0aBkeBAAAAj5qdW1iAAAAJ2p1bWRjMmNsABEAEIAAAKoAOJtxA2MycGEuY2xhaW0udjIAAAACD2Nib3KlY2FsZ2ZzaGEyNTZpc2lnbmF0dXJleE1zZWxmI2p1bWJmPS9jMnBhL3VybjpjMnBhOmI0MGFiY2YwLTQxZTUtNDI2MC1iODg1LTdmZGI4YjUwMmExMS9jMnBhLnNpZ25hdHVyZWppbnN0YW5jZUlEeCx4bXA6aWlkOjMwYjljZWE1LTM1Y2MtNDg1Zi1hM2I3LTU1Zjc4MzEyZDVkZHJjcmVhdGVkX2Fzc2VydGlvbnODomN1cmx4LXNlbGYjanVtYmY9YzJwYS5hc3NlcnRpb25zL2MycGEuaW5ncmVkaWVudC52M2RoYXNoWCArp6xBpAsKRee8AczhdfDrEvAWaRY2YaQsSVS2h8/yh6JjdXJseCpzZWxmI2p1bWJmPWMycGEuYXNzZXJ0aW9ucy9jMnBhLmFjdGlvbnMudjJkaGFzaFggbRIUSIkY/pDET5gJ9LBrDbqPj7iiwDwVQ0Y2EQwXyB+iY3VybHgpc2VsZiNqdW1iZj1jMnBhLmFzc2VydGlvbnMvYzJwYS5oYXNoLmRhdGFkaGFzaFggbyZPdIRzzx6HlMKwWOihRmN43gyPTo7HVpp4lkV8wPl0Y2xhaW1fZ2VuZXJhdG9yX2luZm+jZG5hbWVvQW50aHJvcGljIEZpbGVzZ3ZlcnNpb25lMS4wLjBrc3BlY1ZlcnNpb25lMi40LjAAABA4anVtYgAAAChqdW1kYzJjcwARABCAAACqADibcQNjMnBhLnNpZ25hdHVyZQAAABAIY2JvctKEWQISogEmGCFZAgowggIGMIIBjaADAgECAhRA5aAK7sI50L64g/oGQgU9Z1UTADAKBggqhkjOPQQDAzBJMRcwFQYDVQQKEw5BbnRocm9waWMsIFBCQzEuMCwGA1UEAxMlQW50aHJvcGljIENvbnRlbnQgQ3JlZGVudGlhbHMgUm9vdCBDQTAeFw0yNjA4MDcxODQzNTZaFw0yODA4MDYxOTQzNTZaMEQxFzAVBgNVBAoTDkFudGhyb3BpYywgUEJDMSkwJwYDVQQDEyBBbnRocm9waWMgQ2xhdWRlIENvbnRlbnQgU2lnbmluZzBZMBMGByqGSM49AgEGCCqGSM49AwEHA0IABJh6CmvLUBgFFNU0vUKlOVtE6djd17L5SuwX0LemFisBM3dkd/3cyjxFA3Qo5S46fX0/ihY0VZ7mfb9KF703t5OjWDBWMA4GA1UdDwEB/wQEAwIHgDAVBgNVHSUEDjAMBgorBgEEAYPoXgIBMAwGA1UdEwEB/wQCMAAwHwYDVR0jBBgwFoAUzlHiBIFOZFsj+OPEz5o+nMHXXMIwCgYIKoZIzj0EAwMDZwAwZAIwMXMdFJ4BetLLVY7ORuE9noqbbAZOZn/aArXyTwFAZfKrPzxF2vPoJNf1+UCdg1XGAjBwX1zd9WGqYkqmL5SFqw1QySjr1zJfpJM9+1rdDwSPLMOPOjKuiXjoU/pUUeG9RwmhY3BhZFkNngAAAAAAAAAAAAAAAAAAAAAAAAAAAAAAAAAAAAAAAAAAAAAAAAAAAAAAAAAAAAAAAAAAAAAAAAAAAAAAAAAAAAAAAAAAAAAAAAAAAAAAAAAAAAAAAAAAAAAAAAAAAAAAAAAAAAAAAAAAAAAAAAAAAAAAAAAAAAAAAAAAAAAAAAAAAAAAAAAAAAAAAAAAAAAAAAAAAAAAAAAAAAAAAAAAAAAAAAAAAAAAAAAAAAAAAAAAAAAAAAAAAAAAAAAAAAAAAAAAAAAAAAAAAAAAAAAAAAAAAAAAAAAAAAAAAAAAAAAAAAAAAAAAAAAAAAAAAAAAAAAAAAAAAAAAAAAAAAAAAAAAAAAAAAAAAAAAAAAAAAAAAAAAAAAAAAAAAAAAAAAAAAAAAAAAAAAAAAAAAAAAAAAAAAAAAAAAAAAAAAAAAAAAAAAAAAAAAAAAAAAAAAAAAAAAAAAAAAAAAAAAAAAAAAAAAAAAAAAAAAAAAAAAAAAAAAAAAAAAAAAAAAAAAAAAAAAAAAAAAAAAAAAAAAAAAAAAAAAAAAAAAAAAAAAAAAAAAAAAAAAAAAAAAAAAAAAAAAAAAAAAAAAAAAAAAAAAAAAAAAAAAAAAAAAAAAAAAAAAAAAAAAAAAAAAAAAAAAAAAAAAAAAAAAAAAAAAAAAAAAAAAAAAAAAAAAAAAAAAAAAAAAAAAAAAAAAAAAAAAAAAAAAAAAAAAAAAAAAAAAAAAAAAAAAAAAAAAAAAAAAAAAAAAAAAAAAAAAAAAAAAAAAAAAAAAAAAAAAAAAAAAAAAAAAAAAAAAAAAAAAAAAAAAAAAAAAAAAAAAAAAAAAAAAAAAAAAAAAAAAAAAAAAAAAAAAAAAAAAAAAAAAAAAAAAAAAAAAAAAAAAAAAAAAAAAAAAAAAAAAAAAAAAAAAAAAAAAAAAAAAAAAAAAAAAAAAAAAAAAAAAAAAAAAAAAAAAAAAAAAAAAAAAAAAAAAAAAAAAAAAAAAAAAAAAAAAAAAAAAAAAAAAAAAAAAAAAAAAAAAAAAAAAAAAAAAAAAAAAAAAAAAAAAAAAAAAAAAAAAAAAAAAAAAAAAAAAAAAAAAAAAAAAAAAAAAAAAAAAAAAAAAAAAAAAAAAAAAAAAAAAAAAAAAAAAAAAAAAAAAAAAAAAAAAAAAAAAAAAAAAAAAAAAAAAAAAAAAAAAAAAAAAAAAAAAAAAAAAAAAAAAAAAAAAAAAAAAAAAAAAAAAAAAAAAAAAAAAAAAAAAAAAAAAAAAAAAAAAAAAAAAAAAAAAAAAAAAAAAAAAAAAAAAAAAAAAAAAAAAAAAAAAAAAAAAAAAAAAAAAAAAAAAAAAAAAAAAAAAAAAAAAAAAAAAAAAAAAAAAAAAAAAAAAAAAAAAAAAAAAAAAAAAAAAAAAAAAAAAAAAAAAAAAAAAAAAAAAAAAAAAAAAAAAAAAAAAAAAAAAAAAAAAAAAAAAAAAAAAAAAAAAAAAAAAAAAAAAAAAAAAAAAAAAAAAAAAAAAAAAAAAAAAAAAAAAAAAAAAAAAAAAAAAAAAAAAAAAAAAAAAAAAAAAAAAAAAAAAAAAAAAAAAAAAAAAAAAAAAAAAAAAAAAAAAAAAAAAAAAAAAAAAAAAAAAAAAAAAAAAAAAAAAAAAAAAAAAAAAAAAAAAAAAAAAAAAAAAAAAAAAAAAAAAAAAAAAAAAAAAAAAAAAAAAAAAAAAAAAAAAAAAAAAAAAAAAAAAAAAAAAAAAAAAAAAAAAAAAAAAAAAAAAAAAAAAAAAAAAAAAAAAAAAAAAAAAAAAAAAAAAAAAAAAAAAAAAAAAAAAAAAAAAAAAAAAAAAAAAAAAAAAAAAAAAAAAAAAAAAAAAAAAAAAAAAAAAAAAAAAAAAAAAAAAAAAAAAAAAAAAAAAAAAAAAAAAAAAAAAAAAAAAAAAAAAAAAAAAAAAAAAAAAAAAAAAAAAAAAAAAAAAAAAAAAAAAAAAAAAAAAAAAAAAAAAAAAAAAAAAAAAAAAAAAAAAAAAAAAAAAAAAAAAAAAAAAAAAAAAAAAAAAAAAAAAAAAAAAAAAAAAAAAAAAAAAAAAAAAAAAAAAAAAAAAAAAAAAAAAAAAAAAAAAAAAAAAAAAAAAAAAAAAAAAAAAAAAAAAAAAAAAAAAAAAAAAAAAAAAAAAAAAAAAAAAAAAAAAAAAAAAAAAAAAAAAAAAAAAAAAAAAAAAAAAAAAAAAAAAAAAAAAAAAAAAAAAAAAAAAAAAAAAAAAAAAAAAAAAAAAAAAAAAAAAAAAAAAAAAAAAAAAAAAAAAAAAAAAAAAAAAAAAAAAAAAAAAAAAAAAAAAAAAAAAAAAAAAAAAAAAAAAAAAAAAAAAAAAAAAAAAAAAAAAAAAAAAAAAAAAAAAAAAAAAAAAAAAAAAAAAAAAAAAAAAAAAAAAAAAAAAAAAAAAAAAAAAAAAAAAAAAAAAAAAAAAAAAAAAAAAAAAAAAAAAAAAAAAAAAAAAAAAAAAAAAAAAAAAAAAAAAAAAAAAAAAAAAAAAAAAAAAAAAAAAAAAAAAAAAAAAAAAAAAAAAAAAAAAAAAAAAAAAAAAAAAAAAAAAAAAAAAAAAAAAAAAAAAAAAAAAAAAAAAAAAAAAAAAAAAAAAAAAAAAAAAAAAAAAAAAAAAAAAAAAAAAAAAAAAAAAAAAAAAAAAAAAAAAAAAAAAAAAAAAAAAAAAAAAAAAAAAAAAAAAAAAAAAAAAAAAAAAAAAAAAAAAAAAAAAAAAAAAAAAAAAAAAAAAAAAAAAAAAAAAAAAAAAAAAAAAAAAAAAAAAAAAAAAAAAAAAAAAAAAAAAAAAAAAAAAAAAAAAAAAAAAAAAAAAAAAAAAAAAAAAAAAAAAAAAAAAAAAAAAAAAAAAAAAAAAAAAAAAAAAAAAAAAAAAAAAAAAAAAAAAAAAAAAAAAAAAAAAAAAAAAAAAAAAAAAAAAAAAAAAAAAAAAAAAAAAAAAAAAAAAAAAAAAAAAAAAAAAAAAAAAAAAAAAAAAAAAAAAAAAAAAAAAAAAAAAAAAAAAAAAAAAAAAAAAAAAAAAAAAAAAAAAAAAAAAAAAAAAAAAAAAAAAAAAAAAAAAAAAAAAAAAAAAAAAAAAAAAAAAAAAAAAAAAAAAAAAAAAAAAAAAAAAAAAAAAAAAAAAAAAAAAAAAAAAAAAAAAAAAAAAAAAAAAAAAAAAAAAAAAAAAAAAAAAAAAAAAAAAAAAAAAAAAAAAAAAAAAAAAAAAAAAAAAAAAAAAAAAAAAAAAAAAAAAAAAAAAAAAAAAAAAAAAAAAAAAAAAAAAAAAAAAAAAAAAAAAAAAAAAAAAAAAAAAAAAAAAAAAAAAAAAAAAAAAAAAAAAAAAAAAAAAAAAAAAAAAAAAAAAAAAAAAAAAAAAAAAAAAAAAAAAAAAAAAAAAAAAAAAAAAAAAAAAAAAAAAAAAAAAAAAAAAAAAAAAAAAAAAAAAAAAAAAAAAAAAAAAAAAAAAAAAAAAAAAAAAAAAAAAAAAAAAAAAAAAAAAAAAAAAAAAAAAAAAAAAAAAAAAAAAAAAAAAAAAAAAAAAAAAAAAAAAAAAAAAAAAAAAAAAAAAAAAAAAAAAAAAAAAAAAAAAAAAAAAAAAAAAAAAAAAAAAAAAAAAAAAAAAAAAAAAAAAAAAAAAAAAAAAAAAAAAAAAAAAAAAAAAAAAAAAAAAAAAAAAAAAAAAAAAAAAAAAAAAAAAAAAAAAAAAAAAAAAAAAAAAAAAAAAAAAAAAAAAAAAAAAAAAAAAAAAAAAAAAAAAAAAAAAAAAAAAAAAAAAAAAAAAAAAAAAAAAAAAAAAAAAAAAAAAAAAAAAAAAAAAAAAAAAAAAAAAAAAAAAAAAAAAAAAAAAAAAAAAAAAAAAAAAAAAAAAAAAAAAAAAAAAAAAAAAAAAAAAAAAAAAAAAAAAAAAAAAAAAAAAAAAAAAAAAAAAAAAAAAAAAAAAAAAAAAAAAAAAAAAAAAAAAAAAAAAAAAAAAAAAAAAAAAAAAAAAAAAAAAAAAAAAAAAAAAAAAAAAAAAAAAAAAAAAAAAAAAAAAAAAAAAAAAAAAAAAAAAAAAAAAAAAAAAAAAAAAAAAAAAAAAAAAAAAAAAAAAAAAAAAAAAAAAAAAAAAAAAAAAAAAAAAAAAAAAAAAAAAAAAAAAAAAAAAAAAAAAAAAAAAAAAAAAAAAAAAAAAAAAAAAAAAAAAAAAAAAAAAAAAAAAAAAAAAAAAAAAAAAAAAAAAAAAAAAAAAAAAAAAAAAAAAAAAAAAAAAAAAAAAAAAAAAAAAAAAAAAAAAAAAAAAAAAAAAAAAAAAAAAAAAAAAAAAAAAAAAAAAAAAAAAAAAAAAAAAAAAAAAAAAAAAAAAAAAAAAAAAAAAAAAAAAAAAAAAAAAAAAAAAAAAAAAAAAAAAAAAAAAAAAAAAAAAAAAAAAAAAAAAAAAAAAAAAAAAAAAAAAAAAAAAAAAAAAAAAAAAAAAAAAAAAAAAAAAAAAAAAAAAAAAAAAAAAAAAAAAAAAAAAAAAAAAAAAAAAAAAAAAAAAAAAAAAAAAAAAAAAAAAAAAAAAAAAAAAAAAAAAAAAAAAAAAAAAAAAAAAAAAAAAAAAAAAAAAAAAAAAAAAAAAAAAAAAAAAAAAAAAAAAAAAAAAAAAAAAAAAAAAAAAAAAAAAAAAAAAAAAAAAAAAAAAPZYQF2sMMobfaInOLMFsyLQ2PubHZVsnVGwZj5wg3R0X79bquSdldiyoUNUhxzNzw0WCPDS852hL4/N74i2KDxVb/8=</c2pa:manifest></metadata>
<defs>
  <linearGradient id="skyGrad" x1="0" y1="0" x2="0" y2="1">
    <stop offset="0%" stop-color="#fbe4d8"/>
    <stop offset="55%" stop-color="#f3c9c6"/>
    <stop offset="100%" stop-color="#e8a9ad"/>
  </linearGradient>
  <linearGradient id="archGrad" x1="0" y1="0" x2="0" y2="1">
    <stop offset="0%" stop-color="#8f1d33"/>
    <stop offset="100%" stop-color="#5c0d1a"/>
  </linearGradient>
  <radialGradient id="sunGlow" cx="50%" cy="50%" r="50%">
    <stop offset="0%" stop-color="#ffe9c7" stop-opacity="0.9"/>
    <stop offset="100%" stop-color="#ffe9c7" stop-opacity="0"/>
  </radialGradient>
</defs>
<rect width="900" height="700" fill="url(#skyGrad)"/>
<circle cx="450.0" cy="260" r="220" fill="url(#sunGlow)"/>
<rect x="0" y="560" width="900" height="140" fill="#f6dfe0"/>
<ellipse cx="450.0" cy="565" rx="380" ry="18" fill="#d98a90" opacity="0.4"/>
<path d="M0 30 Q 225 90 450 35 T 900 30" stroke="#c9973f" stroke-width="2" fill="none" opacity="0.6"/>
<circle cx="20" cy="40.0" r="5" fill="#ffe28a"/>
<circle cx="67" cy="49.40837012075187" r="5" fill="#ffe28a"/>
<circle cx="114" cy="56.04173248110584" r="5" fill="#ffe28a"/>
<circle cx="161" cy="57.94357051217054" r="5" fill="#ffe28a"/>
<circle cx="208" cy="54.55293526875262" r="5" fill="#ffe28a"/>
<circle cx="255" cy="46.86989785694197" r="5" fill="#ffe28a"/>
<circle cx="302" cy="37.16057750542153" r="5" fill="#ffe28a"/>
<circle cx="349" cy="28.28874753282698" r="5" fill="#ffe28a"/>
<circle cx="396" cy="22.871162669988713" r="5" fill="#ffe28a"/>
<circle cx="443" cy="22.505744750767224" r="5" fill="#ffe28a"/>
<circle cx="490" cy="27.300274139732945" r="5" fill="#ffe28a"/>
<circle cx="537" cy="35.840599810610954" r="5" fill="#ffe28a"/>
<circle cx="584" cy="45.60774454324081" r="5" fill="#ffe28a"/>
<circle cx="631" cy="53.7208796625054" r="5" fill="#ffe28a"/>
<circle cx="678" cy="57.78702820978601" r="5" fill="#ffe28a"/>
<circle cx="725" cy="56.60687578430812" r="5" fill="#ffe28a"/>
<circle cx="772" cy="50.52850947205171" r="5" fill="#ffe28a"/>
<circle cx="819" cy="41.34474922701159" r="5" fill="#ffe28a"/>
<circle cx="866" cy="31.764353912044214" r="5" fill="#ffe28a"/>
<rect x="156" y="120" width="28" height="380" fill="#8f1d33"/>
<rect x="148" y="110" width="44" height="16" fill="#c9973f"/>
<rect x="148" y="494" width="44" height="16" fill="#c9973f"/>
<rect x="716" y="120" width="28" height="380" fill="#8f1d33"/>
<rect x="708" y="110" width="44" height="16" fill="#c9973f"/>
<rect x="708" y="494" width="44" height="16" fill="#c9973f"/>
<path d="M170 120 Q 450 40 730 120 L 730 140 Q 450 62 170 140 Z" fill="url(#archGrad)"/>
<path d="M170 130 Q 450 260 730 130 L 730 150 Q 450 290 170 150 Z" fill="#c9973f" opacity="0.85"/>
<circle cx="199.9" cy="148.6" r="5.4" fill="#e8933a" opacity="1"/>
<circle cx="198.0" cy="154.5" r="5.4" fill="#e8933a" opacity="1"/>
<circle cx="193.1" cy="158.1" r="5.4" fill="#e8933a" opacity="1"/>
<circle cx="186.9" cy="158.1" r="5.4" fill="#e8933a" opacity="1"/>
<circle cx="182.0" cy="154.5" r="5.4" fill="#e8933a" opacity="1"/>
<circle cx="180.1" cy="148.6" r="5.4" fill="#e8933a" opacity="1"/>
<circle cx="182.0" cy="142.8" r="5.4" fill="#e8933a" opacity="1"/>
<circle cx="186.9" cy="139.2" r="5.4" fill="#e8933a" opacity="1"/>
<circle cx="193.1" cy="139.2" r="5.4" fill="#e8933a" opacity="1"/>
<circle cx="198.0" cy="142.8" r="5.4" fill="#e8933a" opacity="1"/>
<circle cx="194.9" cy="150.2" r="4.5" fill="#f2b34f" opacity="1"/>
<circle cx="191.9" cy="153.4" r="4.5" fill="#f2b34f" opacity="1"/>
<circle cx="187.4" cy="153.1" r="4.5" fill="#f2b34f" opacity="1"/>
<circle cx="184.9" cy="149.4" r="4.5" fill="#f2b34f" opacity="1"/>
<circle cx="186.2" cy="145.2" r="4.5" fill="#f2b34f" opacity="1"/>
<circle cx="190.4" cy="143.5" r="4.5" fill="#f2b34f" opacity="1"/>
<circle cx="194.2" cy="145.8" r="4.5" fill="#f2b34f" opacity="1"/>
<circle cx="190.0" cy="148.6" r="3.5" fill="#c96f1f" opacity="1"/>
<circle cx="259.9" cy="148.8" r="5.4" fill="#e8933a" opacity="1"/>
<circle cx="258.0" cy="154.6" r="5.4" fill="#e8933a" opacity="1"/>
<circle cx="253.1" cy="158.2" r="5.4" fill="#e8933a" opacity="1"/>
<circle cx="246.9" cy="158.2" r="5.4" fill="#e8933a" opacity="1"/>
<circle cx="242.0" cy="154.6" r="5.4" fill="#e8933a" opacity="1"/>
<circle cx="240.1" cy="148.8" r="5.4" fill="#e8933a" opacity="1"/>
<circle cx="242.0" cy="143.0" r="5.4" fill="#e8933a" opacity="1"/>
<circle cx="246.9" cy="139.4" r="5.4" fill="#e8933a" opacity="1"/>
<circle cx="253.1" cy="139.4" r="5.4" fill="#e8933a" opacity="1"/>
<circle cx="258.0" cy="143.0" r="5.4" fill="#e8933a" opacity="1"/>
<circle cx="254.9" cy="150.3" r="4.5" fill="#f2b34f" opacity="1"/>
<circle cx="251.9" cy="153.6" r="4.5" fill="#f2b34f" opacity="1"/>
<circle cx="247.4" cy="153.2" r="4.5" fill="#f2b34f" opacity="1"/>
<circle cx="244.9" cy="149.6" r="4.5" fill="#f2b34f" opacity="1"/>
<circle cx="246.2" cy="145.3" r="4.5" fill="#f2b34f" opacity="1"/>
<circle cx="250.4" cy="143.7" r="4.5" fill="#f2b34f" opacity="1"/>
<circle cx="254.2" cy="145.9" r="4.5" fill="#f2b34f" opacity="1"/>
<circle cx="250.0" cy="148.8" r="3.5" fill="#c96f1f" opacity="1"/>
<circle cx="319.9" cy="153.7" r="5.4" fill="#e8933a" opacity="1"/>
<circle cx="318.0" cy="159.5" r="5.4" fill="#e8933a" opacity="1"/>
<circle cx="313.1" cy="163.2" r="5.4" fill="#e8933a" opacity="1"/>
<circle cx="306.9" cy="163.2" r="5.4" fill="#e8933a" opacity="1"/>
<circle cx="302.0" cy="159.5" r="5.4" fill="#e8933a" opacity="1"/>
<circle cx="300.1" cy="153.7" r="5.4" fill="#e8933a" opacity="1"/>
<circle cx="302.0" cy="147.9" r="5.4" fill="#e8933a" opacity="1"/>
<circle cx="306.9" cy="144.3" r="5.4" fill="#e8933a" opacity="1"/>
<circle cx="313.1" cy="144.3" r="5.4" fill="#e8933a" opacity="1"/>
<circle cx="318.0" cy="147.9" r="5.4" fill="#e8933a" opacity="1"/>
<circle cx="314.9" cy="155.2" r="4.5" fill="#f2b34f" opacity="1"/>
<circle cx="311.9" cy="158.5" r="4.5" fill="#f2b34f" opacity="1"/>
<circle cx="307.4" cy="158.1" r="4.5" fill="#f2b34f" opacity="1"/>
<circle cx="304.9" cy="154.5" r="4.5" fill="#f2b34f" opacity="1"/>
<circle cx="306.2" cy="150.2" r="4.5" fill="#f2b34f" opacity="1"/>
<circle cx="310.4" cy="148.6" r="4.5" fill="#f2b34f" opacity="1"/>
<circle cx="314.2" cy="150.8" r="4.5" fill="#f2b34f" opacity="1"/>
<circle cx="310.0" cy="153.7" r="3.5" fill="#c96f1f" opacity="1"/>
<circle cx="379.9" cy="143.8" r="5.4" fill="#e8933a" opacity="1"/>
<circle cx="378.0" cy="149.7" r="5.4" fill="#e8933a" opacity="1"/>
<circle cx="373.1" cy="153.3" r="5.4" fill="#e8933a" opacity="1"/>
<circle cx="366.9" cy="153.3" r="5.4" fill="#e8933a" opacity="1"/>
<circle cx="362.0" cy="149.7" r="5.4" fill="#e8933a" opacity="1"/>
<circle cx="360.1" cy="143.8" r="5.4" fill="#e8933a" opacity="1"/>
<circle cx="362.0" cy="138.0" r="5.4" fill="#e8933a" opacity="1"/>
<circle cx="366.9" cy="134.4" r="5.4" fill="#e8933a" opacity="1"/>
<circle cx="373.1" cy="134.4" r="5.4" fill="#e8933a" opacity="1"/>
<circle cx="378.0" cy="138.0" r="5.4" fill="#e8933a" opacity="1"/>
<circle cx="374.9" cy="145.3" r="4.5" fill="#f2b34f" opacity="1"/>
<circle cx="371.9" cy="148.6" r="4.5" fill="#f2b34f" opacity="1"/>
<circle cx="367.4" cy="148.3" r="4.5" fill="#f2b34f" opacity="1"/>
<circle cx="364.9" cy="144.6" r="4.5" fill="#f2b34f" opacity="1"/>
<circle cx="366.2" cy="140.3" r="4.5" fill="#f2b34f" opacity="1"/>
<circle cx="370.4" cy="138.7" r="4.5" fill="#f2b34f" opacity="1"/>
<circle cx="374.2" cy="141.0" r="4.5" fill="#f2b34f" opacity="1"/>
<circle cx="370.0" cy="143.8" r="3.5" fill="#c96f1f" opacity="1"/>
<circle cx="439.9" cy="158.5" r="5.4" fill="#e8933a" opacity="1"/>
<circle cx="438.0" cy="164.3" r="5.4" fill="#e8933a" opacity="1"/>
<circle cx="433.1" cy="167.9" r="5.4" fill="#e8933a" opacity="1"/>
<circle cx="426.9" cy="167.9" r="5.4" fill="#e8933a" opacity="1"/>
<circle cx="422.0" cy="164.3" r="5.4" fill="#e8933a" opacity="1"/>
<circle cx="420.1" cy="158.5" r="5.4" fill="#e8933a" opacity="1"/>
<circle cx="422.0" cy="152.7" r="5.4" fill="#e8933a" opacity="1"/>
<circle cx="426.9" cy="149.1" r="5.4" fill="#e8933a" opacity="1"/>
<circle cx="433.1" cy="149.1" r="5.4" fill="#e8933a" opacity="1"/>
<circle cx="438.0" cy="152.7" r="5.4" fill="#e8933a" opacity="1"/>
<circle cx="434.9" cy="160.0" r="4.5" fill="#f2b34f" opacity="1"/>
<circle cx="431.9" cy="163.3" r="4.5" fill="#f2b34f" opacity="1"/>
<circle cx="427.4" cy="162.9" r="4.5" fill="#f2b34f" opacity="1"/>
<circle cx="424.9" cy="159.2" r="4.5" fill="#f2b34f" opacity="1"/>
<circle cx="426.2" cy="155.0" r="4.5" fill="#f2b34f" opacity="1"/>
<circle cx="430.4" cy="153.4" r="4.5" fill="#f2b34f" opacity="1"/>
<circle cx="434.2" cy="155.6" r="4.5" fill="#f2b34f" opacity="1"/>
<circle cx="430.0" cy="158.5" r="3.5" fill="#c96f1f" opacity="1"/>
<circle cx="499.9" cy="139.4" r="5.4" fill="#e8933a" opacity="1"/>
<circle cx="498.0" cy="145.2" r="5.4" fill="#e8933a" opacity="1"/>
<circle cx="493.1" cy="148.8" r="5.4" fill="#e8933a" opacity="1"/>
<circle cx="486.9" cy="148.8" r="5.4" fill="#e8933a" opacity="1"/>
<circle cx="482.0" cy="145.2" r="5.4" fill="#e8933a" opacity="1"/>
<circle cx="480.1" cy="139.4" r="5.4" fill="#e8933a" opacity="1"/>
<circle cx="482.0" cy="133.5" r="5.4" fill="#e8933a" opacity="1"/>
<circle cx="486.9" cy="129.9" r="5.4" fill="#e8933a" opacity="1"/>
<circle cx="493.1" cy="129.9" r="5.4" fill="#e8933a" opacity="1"/>
<circle cx="498.0" cy="133.5" r="5.4" fill="#e8933a" opacity="1"/>
<circle cx="494.9" cy="140.9" r="4.5" fill="#f2b34f" opacity="1"/>
<circle cx="491.9" cy="144.1" r="4.5" fill="#f2b34f" opacity="1"/>
<circle cx="487.4" cy="143.8" r="4.5" fill="#f2b34f" opacity="1"/>
<circle cx="484.9" cy="140.1" r="4.5" fill="#f2b34f" opacity="1"/>
<circle cx="486.2" cy="135.9" r="4.5" fill="#f2b34f" opacity="1"/>
<circle cx="490.4" cy="134.3" r="4.5" fill="#f2b34f" opacity="1"/>
<circle cx="494.2" cy="136.5" r="4.5" fill="#f2b34f" opacity="1"/>
<circle cx="490.0" cy="139.4" r="3.5" fill="#c96f1f" opacity="1"/>
<circle cx="559.9" cy="162.6" r="5.4" fill="#e8933a" opacity="1"/>
<circle cx="558.0" cy="168.4" r="5.4" fill="#e8933a" opacity="1"/>
<circle cx="553.1" cy="172.0" r="5.4" fill="#e8933a" opacity="1"/>
<circle cx="546.9" cy="172.0" r="5.4" fill="#e8933a" opacity="1"/>
<circle cx="542.0" cy="168.4" r="5.4" fill="#e8933a" opacity="1"/>
<circle cx="540.1" cy="162.6" r="5.4" fill="#e8933a" opacity="1"/>
<circle cx="542.0" cy="156.8" r="5.4" fill="#e8933a" opacity="1"/>
<circle cx="546.9" cy="153.2" r="5.4" fill="#e8933a" opacity="1"/>
<circle cx="553.1" cy="153.2" r="5.4" fill="#e8933a" opacity="1"/>
<circle cx="558.0" cy="156.8" r="5.4" fill="#e8933a" opacity="1"/>
<circle cx="554.9" cy="164.1" r="4.5" fill="#f2b34f" opacity="1"/>
<circle cx="551.9" cy="167.4" r="4.5" fill="#f2b34f" opacity="1"/>
<circle cx="547.4" cy="167.0" r="4.5" fill="#f2b34f" opacity="1"/>
<circle cx="544.9" cy="163.3" r="4.5" fill="#f2b34f" opacity="1"/>
<circle cx="546.2" cy="159.1" r="4.5" fill="#f2b34f" opacity="1"/>
<circle cx="550.4" cy="157.5" r="4.5" fill="#f2b34f" opacity="1"/>
<circle cx="554.2" cy="159.7" r="4.5" fill="#f2b34f" opacity="1"/>
<circle cx="550.0" cy="162.6" r="3.5" fill="#c96f1f" opacity="1"/>
<circle cx="619.9" cy="135.7" r="5.4" fill="#e8933a" opacity="1"/>
<circle cx="618.0" cy="141.6" r="5.4" fill="#e8933a" opacity="1"/>
<circle cx="613.1" cy="145.2" r="5.4" fill="#e8933a" opacity="1"/>
<circle cx="606.9" cy="145.2" r="5.4" fill="#e8933a" opacity="1"/>
<circle cx="602.0" cy="141.6" r="5.4" fill="#e8933a" opacity="1"/>
<circle cx="600.1" cy="135.7" r="5.4" fill="#e8933a" opacity="1"/>
<circle cx="602.0" cy="129.9" r="5.4" fill="#e8933a" opacity="1"/>
<circle cx="606.9" cy="126.3" r="5.4" fill="#e8933a" opacity="1"/>
<circle cx="613.1" cy="126.3" r="5.4" fill="#e8933a" opacity="1"/>
<circle cx="618.0" cy="129.9" r="5.4" fill="#e8933a" opacity="1"/>
<circle cx="614.9" cy="137.2" r="4.5" fill="#f2b34f" opacity="1"/>
<circle cx="611.9" cy="140.5" r="4.5" fill="#f2b34f" opacity="1"/>
<circle cx="607.4" cy="140.2" r="4.5" fill="#f2b34f" opacity="1"/>
<circle cx="604.9" cy="136.5" r="4.5" fill="#f2b34f" opacity="1"/>
<circle cx="606.2" cy="132.2" r="4.5" fill="#f2b34f" opacity="1"/>
<circle cx="610.4" cy="130.6" r="4.5" fill="#f2b34f" opacity="1"/>
<circle cx="614.2" cy="132.8" r="4.5" fill="#f2b34f" opacity="1"/>
<circle cx="610.0" cy="135.7" r="3.5" fill="#c96f1f" opacity="1"/>
<circle cx="679.9" cy="165.7" r="5.4" fill="#e8933a" opacity="1"/>
<circle cx="678.0" cy="171.5" r="5.4" fill="#e8933a" opacity="1"/>
<circle cx="673.1" cy="175.1" r="5.4" fill="#e8933a" opacity="1"/>
<circle cx="666.9" cy="175.1" r="5.4" fill="#e8933a" opacity="1"/>
<circle cx="662.0" cy="171.5" r="5.4" fill="#e8933a" opacity="1"/>
<circle cx="660.1" cy="165.7" r="5.4" fill="#e8933a" opacity="1"/>
<circle cx="662.0" cy="159.8" r="5.4" fill="#e8933a" opacity="1"/>
<circle cx="666.9" cy="156.2" r="5.4" fill="#e8933a" opacity="1"/>
<circle cx="673.1" cy="156.2" r="5.4" fill="#e8933a" opacity="1"/>
<circle cx="678.0" cy="159.8" r="5.4" fill="#e8933a" opacity="1"/>
<circle cx="674.9" cy="167.2" r="4.5" fill="#f2b34f" opacity="1"/>
<circle cx="671.9" cy="170.4" r="4.5" fill="#f2b34f" opacity="1"/>
<circle cx="667.4" cy="170.1" r="4.5" fill="#f2b34f" opacity="1"/>
<circle cx="664.9" cy="166.4" r="4.5" fill="#f2b34f" opacity="1"/>
<circle cx="666.2" cy="162.2" r="4.5" fill="#f2b34f" opacity="1"/>
<circle cx="670.4" cy="160.6" r="4.5" fill="#f2b34f" opacity="1"/>
<circle cx="674.2" cy="162.8" r="4.5" fill="#f2b34f" opacity="1"/>
<circle cx="670.0" cy="165.7" r="3.5" fill="#c96f1f" opacity="1"/>

<g transform="translate(360,300)">
  <ellipse cx="0" cy="230" rx="70" ry="16" fill="#5c0d1a" opacity="0.15"/>
  <path d="M-10 240 C-60 240 -70 120 -55 60 C-45 15 -15 -10 0 -10 C10 -10 10 -10 10 -10 L10 240 Z" fill="#8f1d33"/>
  <circle cx="-4" cy="-45" r="34" fill="#3b2320"/>
  <path d="M-40 -60 C-40 -95 40 -95 40 -60 C 40 -80 -40 -80 -40 -60 Z" fill="#c9973f"/>
  <rect x="-40" y="-92" width="80" height="14" rx="6" fill="#e8c27a"/>
</g>

<g transform="translate(520,300)">
  <ellipse cx="0" cy="230" rx="75" ry="16" fill="#5c0d1a" opacity="0.15"/>
  <path d="M0 -10 C40 -10 70 40 65 110 C60 180 40 240 0 240 C-40 240 -60 180 -65 110 C-70 40 -40 -10 0 -10 Z" fill="#b32a44"/>
  <path d="M-65 40 C-90 90 -85 160 -55 210" stroke="#8f1d33" stroke-width="10" fill="none" opacity="0.6"/>
  <circle cx="0" cy="-45" r="32" fill="#3b2320"/>
  <path d="M-32 -70 Q0 -100 32 -70 Q 0 -50 -32 -70 Z" fill="#8f1d33"/>
  <circle cx="0" cy="-8" r="3.5" fill="#c9973f"/>
</g>
<path d="M450 470 c-10-12 -30-6 -30 10 c0 16 30 30 30 30 s30-14 30-30 c0-16 -20-22 -30-10z" fill="#f2b34f"/>
<circle cx="94.8" cy="620.0" r="13.6" fill="#e8933a" opacity="1"/>
<circle cx="90.1" cy="634.6" r="13.6" fill="#e8933a" opacity="1"/>
<circle cx="77.7" cy="643.6" r="13.6" fill="#e8933a" opacity="1"/>
<circle cx="62.3" cy="643.6" r="13.6" fill="#e8933a" opacity="1"/>
<circle cx="49.9" cy="634.6" r="13.6" fill="#e8933a" opacity="1"/>
<circle cx="45.2" cy="620.0" r="13.6" fill="#e8933a" opacity="1"/>
<circle cx="49.9" cy="605.4" r="13.6" fill="#e8933a" opacity="1"/>
<circle cx="62.3" cy="596.4" r="13.6" fill="#e8933a" opacity="1"/>
<circle cx="77.7" cy="596.4" r="13.6" fill="#e8933a" opacity="1"/>
<circle cx="90.1" cy="605.4" r="13.6" fill="#e8933a" opacity="1"/>
<circle cx="82.2" cy="623.8" r="11.2" fill="#f2b34f" opacity="1"/>
<circle cx="74.7" cy="631.9" r="11.2" fill="#f2b34f" opacity="1"/>
<circle cx="63.6" cy="631.1" r="11.2" fill="#f2b34f" opacity="1"/>
<circle cx="57.3" cy="621.9" r="11.2" fill="#f2b34f" opacity="1"/>
<circle cx="60.6" cy="611.3" r="11.2" fill="#f2b34f" opacity="1"/>
<circle cx="71.0" cy="607.2" r="11.2" fill="#f2b34f" opacity="1"/>
<circle cx="80.6" cy="612.8" r="11.2" fill="#f2b34f" opacity="1"/>
<circle cx="70.0" cy="620.0" r="8.8" fill="#c96f1f" opacity="1"/>
<circle cx="851.1" cy="600.0" r="11.6" fill="#d9727e" opacity="1"/>
<circle cx="847.1" cy="612.4" r="11.6" fill="#d9727e" opacity="1"/>
<circle cx="836.5" cy="620.0" r="11.6" fill="#d9727e" opacity="1"/>
<circle cx="823.5" cy="620.0" r="11.6" fill="#d9727e" opacity="1"/>
<circle cx="812.9" cy="612.4" r="11.6" fill="#d9727e" opacity="1"/>
<circle cx="808.9" cy="600.0" r="11.6" fill="#d9727e" opacity="1"/>
<circle cx="812.9" cy="587.6" r="11.6" fill="#d9727e" opacity="1"/>
<circle cx="823.5" cy="580.0" r="11.6" fill="#d9727e" opacity="1"/>
<circle cx="836.5" cy="580.0" r="11.6" fill="#d9727e" opacity="1"/>
<circle cx="847.1" cy="587.6" r="11.6" fill="#d9727e" opacity="1"/>
<circle cx="840.4" cy="603.2" r="9.5" fill="#e79ba3" opacity="1"/>
<circle cx="834.0" cy="610.1" r="9.5" fill="#e79ba3" opacity="1"/>
<circle cx="824.6" cy="609.4" r="9.5" fill="#e79ba3" opacity="1"/>
<circle cx="819.2" cy="601.6" r="9.5" fill="#e79ba3" opacity="1"/>
<circle cx="822.0" cy="592.6" r="9.5" fill="#e79ba3" opacity="1"/>
<circle cx="830.8" cy="589.2" r="9.5" fill="#e79ba3" opacity="1"/>
<circle cx="839.0" cy="593.9" r="9.5" fill="#e79ba3" opacity="1"/>
<circle cx="830.0" cy="600.0" r="7.5" fill="#b84a58" opacity="1"/>
<circle cx="133.6" cy="660.0" r="7.5" fill="#d9727e" opacity="0.85"/>
<circle cx="131.0" cy="668.0" r="7.5" fill="#d9727e" opacity="0.85"/>
<circle cx="124.2" cy="673.0" r="7.5" fill="#d9727e" opacity="0.85"/>
<circle cx="115.8" cy="673.0" r="7.5" fill="#d9727e" opacity="0.85"/>
<circle cx="109.0" cy="668.0" r="7.5" fill="#d9727e" opacity="0.85"/>
<circle cx="106.4" cy="660.0" r="7.5" fill="#d9727e" opacity="0.85"/>
<circle cx="109.0" cy="652.0" r="7.5" fill="#d9727e" opacity="0.85"/>
<circle cx="115.8" cy="647.0" r="7.5" fill="#d9727e" opacity="0.85"/>
<circle cx="124.2" cy="647.0" r="7.5" fill="#d9727e" opacity="0.85"/>
<circle cx="131.0" cy="652.0" r="7.5" fill="#d9727e" opacity="0.85"/>
<circle cx="126.7" cy="662.1" r="6.2" fill="#e79ba3" opacity="0.85"/>
<circle cx="122.6" cy="666.6" r="6.2" fill="#e79ba3" opacity="0.85"/>
<circle cx="116.5" cy="666.1" r="6.2" fill="#e79ba3" opacity="0.85"/>
<circle cx="113.0" cy="661.0" r="6.2" fill="#e79ba3" opacity="0.85"/>
<circle cx="114.8" cy="655.2" r="6.2" fill="#e79ba3" opacity="0.85"/>
<circle cx="120.5" cy="653.0" r="6.2" fill="#e79ba3" opacity="0.85"/>
<circle cx="125.8" cy="656.0" r="6.2" fill="#e79ba3" opacity="0.85"/>
<circle cx="120.0" cy="660.0" r="4.8" fill="#b84a58" opacity="0.85"/>
</svg>